<svg xmlns="http://www.w3.org/2000/svg" xmlns:xlink="http://www.w3.org/1999/xlink" width="400" zoomAndPan="magnify" viewBox="0 0 300 112.499997" height="150" preserveAspectRatio="xMidYMid meet" version="1.0"><defs><clipPath id="e39c1e7cf5"><path d="M 73 36 L 290.375 36 L 290.375 82.558594 L 73 82.558594 Z M 73 36 " clip-rule="nonzero"/></clipPath><clipPath id="4ef1ecc6bc"><path d="M 11.863281 29.546875 L 62 29.546875 L 62 80 L 11.863281 80 Z M 11.863281 29.546875 " clip-rule="nonzero"/></clipPath></defs><g clip-path="url(#e39c1e7cf5)"><path fill="#292929" d="M 120.878906 47.378906 C 112.652344 47.378906 107.5 51.921875 107.5 60.046875 C 107.5 68.171875 112.648438 72.714844 120.878906 72.714844 C 129.105469 72.714844 134.253906 68.171875 134.253906 60.097656 C 134.253906 52.019531 129.105469 47.378906 120.878906 47.378906 Z M 120.878906 65.246094 C 117.898438 65.246094 116.839844 63.277344 116.839844 60.097656 C 116.839844 56.917969 117.898438 54.847656 120.878906 54.847656 C 123.804688 54.847656 124.914062 56.917969 124.914062 60.097656 C 124.914062 63.277344 123.804688 65.246094 120.878906 65.246094 Z M 85.023438 36.273438 L 73.5625 36.273438 L 73.5625 72.109375 L 85.171875 72.109375 C 97.136719 72.109375 105.113281 66.15625 105.113281 53.738281 C 105.109375 42.027344 97.84375 36.273438 85.023438 36.273438 Z M 85.222656 63.832031 L 82.851562 63.832031 L 82.851562 44.550781 L 85.222656 44.550781 C 91.785156 44.550781 95.671875 47.578125 95.671875 53.839844 C 95.671875 60.90625 91.785156 63.832031 85.222656 63.832031 Z M 281.25 36.273438 L 281.25 48.082031 C 279.886719 47.628906 278.222656 47.378906 276.304688 47.378906 C 268.582031 47.378906 264.039062 52.222656 264.039062 60.601562 C 264.039062 68.832031 268.378906 72.71875 274.4375 72.71875 C 277.667969 72.71875 280.191406 71.558594 282.058594 69.839844 L 282.816406 72.113281 L 290.335938 72.113281 L 290.335938 36.273438 Z M 281.25 59.894531 C 281.25 63.53125 279.078125 65.246094 276.65625 65.246094 C 274.433594 65.246094 273.125 63.734375 273.125 60.402344 C 273.125 56.160156 274.890625 54.847656 277.414062 54.847656 C 278.980469 54.847656 280.242188 55.351562 281.25 55.957031 Z M 218.53125 47.378906 C 210.304688 47.378906 205.15625 51.921875 205.15625 60.046875 C 205.15625 68.171875 210.304688 72.714844 218.53125 72.714844 C 226.757812 72.714844 231.90625 68.171875 231.90625 60.097656 C 231.90625 52.019531 226.757812 47.378906 218.53125 47.378906 Z M 218.53125 65.246094 C 215.550781 65.246094 214.492188 63.277344 214.492188 60.097656 C 214.492188 56.917969 215.550781 54.847656 218.53125 54.847656 C 221.457031 54.847656 222.566406 56.917969 222.566406 60.097656 C 222.566406 63.277344 221.457031 65.246094 218.53125 65.246094 Z M 247.972656 47.378906 C 239.746094 47.378906 234.59375 51.921875 234.59375 60.046875 C 234.59375 68.171875 239.742188 72.714844 247.972656 72.714844 C 256.199219 72.714844 261.347656 68.171875 261.347656 60.097656 C 261.347656 52.019531 256.199219 47.378906 247.972656 47.378906 Z M 247.972656 65.246094 C 244.996094 65.246094 243.933594 63.277344 243.933594 60.097656 C 243.933594 56.917969 244.996094 54.847656 247.972656 54.847656 C 250.898438 54.847656 252.011719 56.917969 252.011719 60.097656 C 252.011719 63.277344 250.898438 65.246094 247.972656 65.246094 Z M 192.367188 59.945312 L 188.730469 47.882812 L 182.21875 47.882812 L 178.535156 59.945312 L 175.152344 47.882812 L 165.96875 47.882812 L 174.449219 72.109375 L 181.515625 72.109375 L 185.503906 59.996094 L 189.441406 72.109375 L 196.457031 72.109375 L 204.984375 47.882812 L 195.800781 47.882812 Z M 155.722656 50.3125 C 154.058594 48.546875 151.582031 47.285156 148.25 47.285156 C 142.042969 47.285156 136.996094 51.726562 136.996094 59.449219 C 136.996094 66.261719 140.933594 70.601562 147.847656 70.601562 C 150.675781 70.601562 152.742188 69.894531 154.308594 68.734375 L 154.308594 69.191406 C 154.308594 72.722656 152.351562 74.816406 148.3125 74.816406 C 144.375 74.816406 142 73.664062 140.839844 73.058594 L 139.125 80.078125 C 141.195312 81.632812 145.070312 82.453125 148.804688 82.453125 C 157.890625 82.453125 163.394531 77.972656 163.394531 67.777344 L 163.394531 47.789062 L 156.324219 47.789062 Z M 154.308594 58.996094 C 154.308594 61.921875 152.339844 63.132812 149.816406 63.132812 C 147.191406 63.132812 145.679688 61.769531 145.679688 59.097656 C 145.679688 56.371094 147.242188 54.753906 150.019531 54.753906 C 153.046875 54.753906 154.308594 56.621094 154.308594 58.339844 Z M 154.308594 58.996094 " fill-opacity="1" fill-rule="nonzero"/></g><path fill="#292929" d="M 44.480469 56.378906 L 41.210938 55.285156 C 39.753906 54.796875 39.277344 52.976562 40.308594 51.835938 L 42.625 49.285156 C 42.855469 49.03125 42.5 48.671875 42.246094 48.898438 L 39.660156 51.183594 C 38.511719 52.199219 36.695312 51.703125 36.226562 50.238281 L 35.171875 46.957031 C 35.066406 46.628906 34.582031 46.757812 34.648438 47.09375 L 35.335938 50.472656 C 35.644531 51.976562 34.304688 53.300781 32.800781 52.976562 L 29.433594 52.246094 C 29.097656 52.171875 28.964844 52.660156 29.289062 52.769531 L 32.558594 53.859375 C 34.015625 54.347656 34.492188 56.171875 33.457031 57.308594 L 31.140625 59.863281 C 30.914062 60.117188 31.265625 60.472656 31.523438 60.246094 L 34.105469 57.960938 C 35.257812 56.945312 37.074219 57.441406 37.542969 58.90625 L 38.59375 62.191406 C 38.699219 62.515625 39.1875 62.390625 39.117188 62.054688 L 38.429688 58.671875 C 38.125 57.167969 39.464844 55.84375 40.964844 56.171875 L 44.335938 56.898438 C 44.671875 56.972656 44.804688 56.488281 44.480469 56.378906 Z M 37.390625 56.683594 L 35.269531 56.066406 L 34.746094 53.917969 L 36.339844 52.390625 L 38.464844 53.007812 L 38.988281 55.15625 Z M 37.390625 56.683594 " fill-opacity="1" fill-rule="nonzero"/><g clip-path="url(#4ef1ecc6bc)"><path fill="#292929" d="M 36.828125 29.546875 C 23.042969 29.546875 11.867188 40.71875 11.867188 54.503906 C 11.867188 68.285156 23.042969 79.460938 36.828125 79.460938 C 50.609375 79.460938 61.785156 68.285156 61.785156 54.503906 C 61.785156 40.71875 50.613281 29.546875 36.828125 29.546875 Z M 51.902344 54.4375 C 50.589844 55.789062 48.773438 58.160156 46.804688 57.15625 C 47.613281 57.566406 48.210938 57.867188 48.820312 58.5625 C 50.039062 59.949219 50.28125 62.066406 50.46875 63.863281 C 50.621094 65.289062 50.761719 67.117188 50.203125 67.941406 C 49.644531 68.511719 47.488281 68.316406 46.042969 68.15625 C 44.699219 68.007812 43.191406 67.828125 41.972656 67.210938 C 41.382812 66.910156 40.863281 66.519531 40.460938 65.984375 C 40.058594 65.457031 39.785156 64.699219 39.433594 64.054688 C 39.359375 64.675781 39.472656 65.410156 39.398438 65.945312 C 39.304688 66.617188 39.066406 67.261719 38.714844 67.84375 C 37.96875 69.074219 36.769531 69.984375 35.5 70.617188 C 34.523438 71.105469 33.542969 71.554688 32.617188 72.136719 C 31.398438 72.90625 31.589844 72.136719 30.984375 71.066406 C 30.59375 70.382812 30.132812 69.738281 29.710938 69.078125 C 28.707031 67.511719 27.976562 65.578125 28.484375 63.710938 C 28.636719 63.160156 28.886719 62.636719 29.226562 62.175781 C 29.417969 61.917969 29.691406 61.726562 29.808594 61.4375 C 29.574219 61.585938 29.386719 61.777344 29.164062 61.941406 C 28.714844 62.273438 28.207031 62.519531 27.667969 62.667969 C 25.765625 63.199219 23.957031 62.4375 22.148438 61.519531 C 21.300781 61.089844 19.050781 60.050781 18.769531 59.152344 C 18.765625 59.140625 18.761719 59.125 18.757812 59.113281 C 18.695312 58.535156 19.964844 56.316406 20.492188 55.484375 C 21.539062 53.828125 22.761719 52.414062 24.574219 51.882812 C 25.089844 51.734375 25.585938 51.707031 26.117188 51.726562 C 26.550781 51.742188 26.671875 51.777344 27.203125 51.832031 C 26.972656 51.71875 26.753906 51.601562 26.542969 51.507812 C 26.023438 51.269531 25.546875 50.933594 25.148438 50.523438 C 23.800781 49.136719 23.5 47.09375 23.617188 45.238281 C 23.683594 44.191406 23.617188 43.148438 23.625 42.101562 C 23.632812 41.164062 23.589844 41.113281 24.457031 40.980469 C 25.550781 40.8125 26.207031 40.808594 27.410156 40.847656 C 28.992188 40.898438 30.738281 41.089844 31.972656 41.800781 C 32.9375 42.359375 34.15625 43.390625 34.339844 44.578125 C 34.308594 44.367188 34.261719 44.164062 34.242188 43.953125 C 34.191406 43.398438 34.246094 42.835938 34.394531 42.296875 C 34.917969 40.429688 36.542969 39.148438 38.210938 38.316406 C 38.988281 37.929688 41.617188 36.507812 42.214844 36.5625 C 42.777344 36.609375 43.363281 38.859375 44 39.855469 C 45 41.421875 45.734375 43.355469 45.226562 45.222656 C 45.074219 45.773438 44.820312 46.296875 44.480469 46.757812 C 44.289062 47.015625 43.925781 47.300781 43.84375 47.554688 C 44.109375 47.402344 44.300781 47.171875 44.542969 46.992188 C 44.996094 46.660156 45.503906 46.414062 46.039062 46.261719 C 47.945312 45.730469 49.777344 46.582031 51.648438 47.390625 C 52.527344 47.769531 54.695312 48.808594 54.875 49.507812 C 55.1875 50.722656 52.832031 53.480469 51.902344 54.4375 Z M 51.902344 54.4375 " fill-opacity="1" fill-rule="nonzero"/></g></svg>